HIERARCHY
ROOT Root
{
  OFFSET 0.0 0.0 0.0
  CHANNELS 6 Xposition Yposition Zposition Zrotation Yrotation Xrotation
  JOINT Hips
  {
    OFFSET 0.0 100.0 0.0
    CHANNELS 6 Xposition Yposition Zposition Zrotation Yrotation Xrotation
    JOINT Spine1
    {
      OFFSET 5.003913 -0.037094 -0.013727
      CHANNELS 3 Zrotation Yrotation Xrotation
      JOINT Spine2
      {
        OFFSET 7.125363 -1e-06 0.0
        CHANNELS 3 Zrotation Yrotation Xrotation
        JOINT Chest
        {
          OFFSET 7.594027 1e-06 0.0
          CHANNELS 3 Zrotation Yrotation Xrotation
          JOINT Neck1
          {
            OFFSET 26.313086 -0.460272 -0.181672
            CHANNELS 3 Zrotation Yrotation Xrotation
            JOINT Neck2
            {
              OFFSET 8.045911 0.0 0.0
              CHANNELS 3 Zrotation Yrotation Xrotation
              JOINT Head
              {
                OFFSET 6.432774 0.0 0.0
                CHANNELS 3 Zrotation Yrotation Xrotation
                JOINT HeadEnd
                {
                  OFFSET 16.169773 0.06451 0.00362
                  CHANNELS 3 Zrotation Yrotation Xrotation
                }
                JOINT Jaw
                {
                  OFFSET 0.108741 3.12938 0.002639
                  CHANNELS 3 Zrotation Yrotation Xrotation
                }
                JOINT LeftEye
                {
                  OFFSET 4.45173 8.166359 3.206392
                  CHANNELS 3 Zrotation Yrotation Xrotation
                }
                JOINT RightEye
                {
                  OFFSET 4.436895 8.135758 -3.222429
                  CHANNELS 3 Zrotation Yrotation Xrotation
                }
              }
            }
          }
          JOINT LeftShoulder
          {
            OFFSET 23.218927 5.195579 1.621656
            CHANNELS 3 Zrotation Yrotation Xrotation
            JOINT LeftArm
            {
              OFFSET 15.902118 2e-06 -2e-06
              CHANNELS 3 Zrotation Yrotation Xrotation
              JOINT LeftForeArm
              {
                OFFSET 28.739307 0.0 -1e-06
                CHANNELS 3 Zrotation Yrotation Xrotation
                JOINT LeftHand
                {
                  OFFSET 27.093981 -4e-06 0.0
                  CHANNELS 3 Zrotation Yrotation Xrotation
                  JOINT LeftHandThumb1
                  {
                    OFFSET 2.276781 3.380274 0.83384
                    CHANNELS 3 Zrotation Yrotation Xrotation
                    JOINT LeftHandThumb2
                    {
                      OFFSET 4.705309 -1e-06 -1e-06
                      CHANNELS 3 Zrotation Yrotation Xrotation
                      JOINT LeftHandThumb3
                      {
                        OFFSET 2.798515 0.0 3e-06
                        CHANNELS 3 Zrotation Yrotation Xrotation
                        JOINT LeftHandThumbEnd
                        {
                          OFFSET 3.180793 4e-06 -4e-06
                          CHANNELS 3 Zrotation Yrotation Xrotation
                        }
                      }
                    }
                  }
                  JOINT LeftHandIndex1
                  {
                    OFFSET 3.247786 2.352677 0.137192
                    CHANNELS 3 Zrotation Yrotation Xrotation
                    JOINT LeftHandIndex2
                    {
                      OFFSET 6.367095 1e-06 0.0
                      CHANNELS 3 Zrotation Yrotation Xrotation
                      JOINT LeftHandIndex3
                      {
                        OFFSET 3.662364 0.0 0.0
                        CHANNELS 3 Zrotation Yrotation Xrotation
                        JOINT LeftHandIndex4
                        {
                          OFFSET 2.329242 4e-06 -4e-06
                          CHANNELS 3 Zrotation Yrotation Xrotation
                          JOINT LeftHandIndexEnd
                          {
                            OFFSET 2.767823 1e-06 0.0
                            CHANNELS 3 Zrotation Yrotation Xrotation
                          }
                        }
                      }
                    }
                  }
                  JOINT LeftHandMiddle1
                  {
                    OFFSET 3.163612 0.945023 -0.406112
                    CHANNELS 3 Zrotation Yrotation Xrotation
                    JOINT LeftHandMiddle2
                    {
                      OFFSET 6.276789 3e-06 0.0
                      CHANNELS 3 Zrotation Yrotation Xrotation
                      JOINT LeftHandMiddle3
                      {
                        OFFSET 4.35652 -1e-06 4e-06
                        CHANNELS 3 Zrotation Yrotation Xrotation
                        JOINT LeftHandMiddle4
                        {
                          OFFSET 2.996877 0.0 8e-06
                          CHANNELS 3 Zrotation Yrotation Xrotation
                          JOINT LeftHandMiddleEnd
                          {
                            OFFSET 2.323256 3e-06 -4e-06
                            CHANNELS 3 Zrotation Yrotation Xrotation
                          }
                        }
                      }
                    }
                  }
                  JOINT LeftHandRing1
                  {
                    OFFSET 2.882606 -0.309162 0.107445
                    CHANNELS 3 Zrotation Yrotation Xrotation
                    JOINT LeftHandRing2
                    {
                      OFFSET 6.033198 0.0 4e-06
                      CHANNELS 3 Zrotation Yrotation Xrotation
                      JOINT LeftHandRing3
                      {
                        OFFSET 4.350578 3e-06 0.0
                        CHANNELS 3 Zrotation Yrotation Xrotation
                        JOINT LeftHandRing4
                        {
                          OFFSET 2.651321 2e-06 -7e-06
                          CHANNELS 3 Zrotation Yrotation Xrotation
                          JOINT LeftHandRingEnd
                          {
                            OFFSET 1.937663 1e-06 -4e-06
                            CHANNELS 3 Zrotation Yrotation Xrotation
                          }
                        }
                      }
                    }
                  }
                  JOINT LeftHandPinky1
                  {
                    OFFSET 2.865315 -1.525436 0.575687
                    CHANNELS 3 Zrotation Yrotation Xrotation
                    JOINT LeftHandPinky2
                    {
                      OFFSET 5.54936 1e-06 -8e-06
                      CHANNELS 3 Zrotation Yrotation Xrotation
                      JOINT LeftHandPinky3
                      {
                        OFFSET 3.070974 0.0 -4e-06
                        CHANNELS 3 Zrotation Yrotation Xrotation
                        JOINT LeftHandPinky4
                        {
                          OFFSET 1.549672 1e-06 0.0
                          CHANNELS 3 Zrotation Yrotation Xrotation
                          JOINT LeftHandPinkyEnd
                          {
                            OFFSET 1.952123 0.0 0.0
                            CHANNELS 3 Zrotation Yrotation Xrotation
                          }
                        }
                      }
                    }
                  }
                }
              }
            }
          }
          JOINT RightShoulder
          {
            OFFSET 23.161716 5.296122 -1.380114
            CHANNELS 3 Zrotation Yrotation Xrotation
            JOINT RightArm
            {
              OFFSET -16.027195 -2e-06 1.1e-05
              CHANNELS 3 Zrotation Yrotation Xrotation
              JOINT RightForeArm
              {
                OFFSET -28.736639 4e-06 2e-06
                CHANNELS 3 Zrotation Yrotation Xrotation
                JOINT RightHand
                {
                  OFFSET -27.133619 6e-06 0.0
                  CHANNELS 3 Zrotation Yrotation Xrotation
                  JOINT RightHandThumb1
                  {
                    OFFSET -2.274328 -3.351035 -0.83067
                    CHANNELS 3 Zrotation Yrotation Xrotation
                    JOINT RightHandThumb2
                    {
                      OFFSET -4.703594 -3e-06 2e-06
                      CHANNELS 3 Zrotation Yrotation Xrotation
                      JOINT RightHandThumb3
                      {
                        OFFSET -2.794935 -4e-06 -3e-06
                        CHANNELS 3 Zrotation Yrotation Xrotation
                        JOINT RightHandThumbEnd
                        {
                          OFFSET -3.183852 4e-06 1e-06
                          CHANNELS 3 Zrotation Yrotation Xrotation
                        }
                      }
                    }
                  }
                  JOINT RightHandIndex1
                  {
                    OFFSET -3.253496 -2.33755 -0.127667
                    CHANNELS 3 Zrotation Yrotation Xrotation
                    JOINT RightHandIndex2
                    {
                      OFFSET -6.344434 0.0 0.0
                      CHANNELS 3 Zrotation Yrotation Xrotation
                      JOINT RightHandIndex3
                      {
                        OFFSET -3.654871 0.0 -8e-06
                        CHANNELS 3 Zrotation Yrotation Xrotation
                        JOINT RightHandIndex4
                        {
                          OFFSET -2.327586 -1e-06 0.0
                          CHANNELS 3 Zrotation Yrotation Xrotation
                          JOINT RightHandIndexEnd
                          {
                            OFFSET -2.770001 3e-06 8e-06
                            CHANNELS 3 Zrotation Yrotation Xrotation
                          }
                        }
                      }
                    }
                  }
                  JOINT RightHandMiddle1
                  {
                    OFFSET -3.168223 -0.944764 0.411762
                    CHANNELS 3 Zrotation Yrotation Xrotation
                    JOINT RightHandMiddle2
                    {
                      OFFSET -6.266691 -1e-06 -4e-06
                      CHANNELS 3 Zrotation Yrotation Xrotation
                      JOINT RightHandMiddle3
                      {
                        OFFSET -4.348901 0.0 0.0
                        CHANNELS 3 Zrotation Yrotation Xrotation
                        JOINT RightHandMiddle4
                        {
                          OFFSET -3.00024 2e-06 -4e-06
                          CHANNELS 3 Zrotation Yrotation Xrotation
                          JOINT RightHandMiddleEnd
                          {
                            OFFSET -2.321477 -4e-06 -4e-06
                            CHANNELS 3 Zrotation Yrotation Xrotation
                          }
                        }
                      }
                    }
                  }
                  JOINT RightHandRing1
                  {
                    OFFSET -2.885654 0.293261 -0.119232
                    CHANNELS 3 Zrotation Yrotation Xrotation
                    JOINT RightHandRing2
                    {
                      OFFSET -6.032835 -1e-06 -4e-06
                      CHANNELS 3 Zrotation Yrotation Xrotation
                      JOINT RightHandRing3
                      {
                        OFFSET -4.33881 0.0 -4e-06
                        CHANNELS 3 Zrotation Yrotation Xrotation
                        JOINT RightHandRing4
                        {
                          OFFSET -2.654903 -4e-06 -4e-06
                          CHANNELS 3 Zrotation Yrotation Xrotation
                          JOINT RightHandRingEnd
                          {
                            OFFSET -1.935122 0.0 4e-06
                            CHANNELS 3 Zrotation Yrotation Xrotation
                          }
                        }
                      }
                    }
                  }
                  JOINT RightHandPinky1
                  {
                    OFFSET -2.866241 1.503904 -0.60527
                    CHANNELS 3 Zrotation Yrotation Xrotation
                    JOINT RightHandPinky2
                    {
                      OFFSET -5.553177 -2e-06 0.0
                      CHANNELS 3 Zrotation Yrotation Xrotation
                      JOINT RightHandPinky3
                      {
                        OFFSET -3.062664 -1e-06 -4e-06
                        CHANNELS 3 Zrotation Yrotation Xrotation
                        JOINT RightHandPinky4
                        {
                          OFFSET -1.546529 2e-06 4e-06
                          CHANNELS 3 Zrotation Yrotation Xrotation
                          JOINT RightHandPinkyEnd
                          {
                            OFFSET -1.952341 0.0 -4e-06
                            CHANNELS 3 Zrotation Yrotation Xrotation
                          }
                        }
                      }
                    }
                  }
                }
              }
            }
          }
        }
      }
    }
    JOINT LeftLeg
    {
      OFFSET -8.443107 2.567604 10.043214
      CHANNELS 3 Zrotation Yrotation Xrotation
      JOINT LeftShin
      {
        OFFSET 43.229198 1e-06 -1e-06
        CHANNELS 3 Zrotation Yrotation Xrotation
        JOINT LeftFoot
        {
          OFFSET 42.298611 1e-06 1e-06
          CHANNELS 3 Zrotation Yrotation Xrotation
          JOINT LeftToeBase
          {
            OFFSET 14.165858 1e-06 0.0
            CHANNELS 3 Zrotation Yrotation Xrotation
            JOINT LeftToeEnd
            {
              OFFSET 6.7141 -0.234461 0.0
              CHANNELS 3 Zrotation Yrotation Xrotation
            }
          }
        }
      }
    }
    JOINT RightLeg
    {
      OFFSET -8.303923 2.592729 -10.047278
      CHANNELS 3 Zrotation Yrotation Xrotation
      JOINT RightShin
      {
        OFFSET -43.369682 0.0 1e-06
        CHANNELS 3 Zrotation Yrotation Xrotation
        JOINT RightFoot
        {
          OFFSET -42.260784 4e-06 2e-06
          CHANNELS 3 Zrotation Yrotation Xrotation
          JOINT RightToeBase
          {
            OFFSET -14.222245 -2e-06 -1e-06
            CHANNELS 3 Zrotation Yrotation Xrotation
            JOINT RightToeEnd
            {
              OFFSET -6.660062 0.232574 -2e-06
              CHANNELS 3 Zrotation Yrotation Xrotation
            }
          }
        }
      }
    }
  }
}
MOTION
Frames: 4
Frame Time: 0.03333333333333333
0.0 0.0 0.0 0.0 -0.0 0.0 -0.21034 67.354004 3.8391 91.48468 10.869654 88.912933 10.429713 4.257609 0.721714 -6.892901 0.615098 0.377784 25.35524 3.621397 1.591972 37.345078 13.222266 1.473991 -2.502414 -1.134745 2.419362 -38.173782 2.750106 -1.088439 5e-06 -1e-06 -0.0 -0.017885 -0.022029 0.093854 0.193747 -0.055958 0.199644 0.3979 0.014745 -0.016878 -31.33312 -80.00843 44.496952 87.578873 -55.457672 -79.931679 112.744957 -1.597874 -0.767201 12.638025 8.171082 -15.651415 17.636621 -26.322723 52.411182 -19.466652 -14.395592 29.410385 -3e-06 -8.774819 -1e-06 14.779961 -18.69636 6.496919 -0.609776 -1.795653 -3.889328 -4.807091 -11.046811 -2.937849 4e-06 -20.976013 1e-06 -5.019972 -25.033552 -4.031878 6e-06 -0.0 -1e-06 -10.634529 -5.68697 -3.565587 10.57327 -17.922949 -3.113901 3e-06 -13.821208 -1e-06 -0.501779 -31.181505 -4.027016 -11.793355 -58.778011 7.42831 -13.982712 -7.150196 -2.875041 13.772726 -8.401491 -3.218242 0.347732 -34.211544 0.771654 -0.963029 -17.733366 2.62102 -0.0 0.0 -1e-06 -17.346418 -20.095215 -4.201781 21.757553 -1.638373 3.866428 1e-06 -6.338823 0.0 -1.69759 -22.59174 -6.194005 1e-06 -4e-06 -3e-06 12.910081 -85.094032 -179.93631 84.236984 -33.091927 -50.667526 125.615128 1.282845 0.460512 14.543906 -13.290808 -4.371184 22.182121 -20.3759 49.933327 -16.701817 -16.743525 28.476538 -1e-06 -12.690601 -4e-06 16.554619 -17.515333 3.290068 -0.105918 -1.513855 -4.27588 -5.039042 -5.612874 -2.953557 4e-06 -11.020527 1e-06 -6.111298 -15.895334 -3.840472 1e-06 0.0 -3e-06 -10.28337 -5.680288 -4.34184 11.028295 -11.302409 -2.372634 -1.384266 -14.238582 -6.320121 -0.625435 -26.924194 -3.827602 -5.147727 -51.134155 -2.416608 -13.708522 -7.363475 -3.720942 18.141148 -14.052746 -3.242675 8e-06 -18.787271 -4e-06 -0.429711 -8.456045 2.555504 -1e-06 0.0 0.0 -15.923536 -20.09449 -5.473586 30.419218 -7.190827 1.735928 2e-06 -8.162929 -1e-06 -1.861897 -22.861475 -6.167943 -2e-06 -1e-06 -1e-06 148.159882 -8.431615 6.906595 112.032524 -0.674228 0.168421 -99.002464 19.985001 -8.975002 -35.456875 2.527077 1.633337 -1.0 -1e-06 0.0 -35.552505 -3.041451 5.80389 117.468437 -1.1021 0.266026 -87.313805 7.167931 -1.678169 -37.86694 1.244785 1.335048 -1.000002 -0.0 -0.0 
0.0 0.0 0.0 0.0 -0.0 0.0 -0.07501 65.199707 5.083655 91.275925 11.832314 89.155197 10.345667 4.238012 0.692357 -6.92959 0.646868 0.332284 25.321932 3.715134 1.56933 36.431358 13.331624 1.439018 -2.505413 -0.969708 2.036009 -38.472088 2.816718 -1.271296 5e-06 -1e-06 -0.0 -0.034695 -0.029434 0.104925 0.208484 -0.026145 0.21383 0.397111 -0.029884 -0.007529 -28.688799 -79.987083 41.508286 87.91716 -54.827301 -80.734215 114.133018 -1.600791 -0.840408 12.149769 7.980189 -16.938265 17.636618 -26.322721 52.411182 -19.466652 -14.395594 29.410385 -1e-06 -8.774817 0.0 14.97756 -18.551529 6.461647 -0.609775 -1.795653 -3.889328 -4.807089 -11.046809 -2.93785 4e-06 -20.976015 -4e-06 -5.019966 -25.033556 -4.031884 6e-06 1e-06 -0.0 -10.634528 -5.686971 -3.565587 10.57327 -17.922951 -3.113902 3e-06 -13.821209 -2e-06 -0.501776 -31.181501 -4.027015 -11.854488 -58.906624 7.522021 -13.982706 -7.150198 -2.875042 13.772724 -8.401491 -3.218241 0.347735 -34.211544 0.771651 -0.963027 -17.733366 2.621014 -1e-06 -1e-06 -0.0 -17.346409 -20.095217 -4.201782 21.757549 -1.638374 3.866426 2e-06 -6.338825 -2e-06 -1.697585 -22.59174 -6.194007 0.0 -3e-06 -4e-06 12.023067 -84.579025 -178.810196 84.578957 -32.192894 -50.861866 126.144157 1.532996 0.233781 14.059398 -12.516449 -5.013399 22.182116 -20.375895 49.933327 -16.701817 -16.74353 28.476538 2e-06 -12.690605 -3e-06 16.165363 -17.398428 3.428641 -0.105918 -1.513857 -4.275886 -5.039042 -5.612874 -2.953556 4e-06 -11.020525 -3e-06 -6.111299 -15.895334 -3.840474 1e-06 0.0 -2e-06 -10.283369 -5.680288 -4.341842 11.028296 -11.302407 -2.372634 -1.384269 -14.238583 -6.320122 -0.62544 -26.924194 -3.827603 -4.832853 -50.471905 -2.550836 -13.708526 -7.363479 -3.720939 18.141153 -14.052742 -3.242677 7e-06 -18.787271 -4e-06 -0.429709 -8.456045 2.555501 0.0 1e-06 -0.0 -15.923536 -20.09449 -5.473584 30.419224 -7.190822 1.735923 1e-06 -8.162929 -2e-06 -1.861901 -22.861473 -6.167946 -2e-06 -2e-06 -0.0 149.706573 -9.112665 7.463957 115.384995 -0.62548 0.102629 -99.699265 19.762495 -8.071103 -36.688305 2.521867 1.632698 -0.999999 -0.0 -0.0 -33.458424 -3.354688 5.664333 120.174065 -1.133397 0.197141 -90.325134 7.547265 -2.176789 -38.62133 1.234884 1.317456 -1.000001 -0.0 -0.0 
0.0 0.0 0.0 0.0 -0.0 0.0 0.022526 62.847198 6.292008 91.097618 12.530102 89.511116 10.197813 4.112004 0.662898 -6.972034 0.641481 0.266733 25.262175 3.749682 1.482856 35.192913 13.348129 1.378516 -2.523172 -0.813682 1.608265 -38.557365 2.676465 -1.482642 5e-06 -0.0 0.0 -0.041324 -0.039554 0.117942 0.19165 -0.016324 0.22915 0.358839 -0.059876 0.002658 -26.382244 -80.210312 38.834743 87.565002 -53.998196 -80.592781 115.800446 -1.482505 -0.905218 11.564396 7.485353 -18.056349 17.636641 -26.322725 52.411182 -19.46666 -14.395598 29.410381 -1e-06 -8.774821 -2e-06 15.079482 -18.469311 6.481051 -0.609774 -1.795654 -3.889328 -4.807086 -11.046807 -2.937848 5e-06 -20.976011 -1e-06 -5.019969 -25.033556 -4.03188 7e-06 2e-06 2e-06 -10.634534 -5.686969 -3.565588 10.573271 -17.922951 -3.113901 2e-06 -13.821205 2e-06 -0.501779 -31.181505 -4.027015 -11.932867 -59.162983 7.68244 -13.982714 -7.150197 -2.875042 13.772731 -8.401494 -3.218243 0.347737 -34.211544 0.771652 -0.963025 -17.733366 2.62102 -0.0 -1e-06 1e-06 -17.346416 -20.095213 -4.201782 21.757555 -1.638379 3.866427 1e-06 -6.338825 1e-06 -1.697587 -22.59174 -6.194007 1e-06 -3e-06 -3e-06 9.504728 -84.04142 -176.122147 84.921837 -31.34399 -51.654049 126.706665 1.571405 0.120747 13.615786 -12.049376 -5.824552 22.182117 -20.375898 49.933319 -16.701813 -16.74353 28.476534 -1e-06 -12.690601 -3e-06 16.069189 -17.371828 3.500058 -0.10592 -1.513857 -4.275882 -5.039041 -5.612873 -2.953558 4e-06 -11.020524 -1e-06 -6.111295 -15.895326 -3.840474 -0.0 -1e-06 -1e-06 -10.283373 -5.680289 -4.34184 11.028296 -11.302402 -2.372633 -1.384269 -14.238578 -6.320118 -0.625441 -26.924187 -3.827598 -4.697092 -50.216843 -2.572189 -13.708527 -7.363477 -3.720941 18.141148 -14.052739 -3.242674 9e-06 -18.78727 -1e-06 -0.429713 -8.456041 2.555505 2e-06 -1e-06 -1e-06 -15.923536 -20.094484 -5.473587 30.419218 -7.190825 1.735926 0.0 -8.162927 1e-06 -1.861901 -22.861467 -6.167942 0.0 -2e-06 -1e-06 151.077362 -9.746921 8.33144 118.903831 -0.552842 0.043942 -100.467094 19.239578 -7.111012 -38.216778 2.556875 1.637393 -0.999999 -0.0 -0.0 -31.516054 -3.660035 5.493865 123.259468 -1.186049 0.145945 -92.716675 7.679626 -2.448255 -39.584251 1.242932 1.295491 -1.000003 -0.0 0.0 
0.0 0.0 0.0 0.0 -0.0 0.0 0.091901 60.386478 7.302622 90.908875 12.795533 89.859261 10.061641 3.93733 0.682118 -7.007475 0.602237 0.217741 25.173553 3.691097 1.418281 33.572544 13.206183 1.41736 -2.532991 -0.712391 1.171297 -38.675495 2.431993 -1.746717 6e-06 -0.0 -1e-06 -0.040859 -0.044711 0.118554 0.173585 -0.014907 0.228707 0.312324 -0.071272 0.004115 -24.165236 -80.588753 36.199409 86.757454 -52.901798 -79.937836 117.818726 -1.433752 -0.991063 10.920843 6.895801 -19.027542 17.636623 -26.322737 52.411201 -19.466663 -14.395598 29.410393 -1e-06 -8.774822 -1e-06 15.072043 -18.433332 6.626533 -0.609776 -1.795653 -3.889328 -4.807087 -11.046813 -2.937849 1e-06 -20.976021 1e-06 -5.019973 -25.033566 -4.031881 5e-06 -1e-06 -1e-06 -10.634534 -5.68697 -3.565588 10.573277 -17.922955 -3.113905 0.0 -13.821216 2e-06 -0.501779 -31.181519 -4.027018 -12.109668 -59.544308 7.92098 -13.982718 -7.150198 -2.875041 13.77273 -8.401496 -3.218243 0.347732 -34.211559 0.771655 -0.963028 -17.73337 2.621017 1e-06 -0.0 -1e-06 -17.34642 -20.095222 -4.20178 21.757561 -1.638374 3.866428 -1e-06 -6.338826 1e-06 -1.697592 -22.591755 -6.194008 -0.0 -4e-06 -2e-06 5.273273 -83.664078 -171.822464 85.31842 -30.457672 -52.798485 127.41024 1.713892 0.022885 13.35375 -11.917324 -6.676602 22.182119 -20.375895 49.933331 -16.701818 -16.74353 28.476538 1e-06 -12.690606 -2e-06 16.131866 -17.409916 3.535666 -0.105919 -1.513856 -4.275882 -5.039044 -5.612875 -2.953557 5e-06 -11.020528 -1e-06 -6.111301 -15.895334 -3.840474 1e-06 2e-06 1e-06 -10.283372 -5.680289 -4.34184 11.028296 -11.302408 -2.372634 -1.384269 -14.238584 -6.320122 -0.625437 -26.924194 -3.827604 -4.64794 -50.258869 -2.581917 -13.708528 -7.363476 -3.720938 18.141153 -14.052742 -3.242676 9e-06 -18.787273 -3e-06 -0.429713 -8.456045 2.555504 2e-06 0.0 -1e-06 -15.923539 -20.094492 -5.473587 30.419218 -7.190824 1.735927 3e-06 -8.162929 -2e-06 -1.861903 -22.861473 -6.167945 -2e-06 -1e-06 -1e-06 151.955383 -10.387426 9.436139 122.541985 -0.488271 -0.013189 -101.117554 18.832802 -6.189382 -39.72205 2.606158 1.642331 -0.999998 0.0 0.0 -30.076059 -3.82939 5.437465 126.594185 -1.206364 0.073555 -94.819221 7.593424 -2.476665 -40.439701 1.250939 1.27216 -1.000001 -0.0 -0.0 
